<?xml version="1.0" encoding="UTF-8" standalone="no"?>
<!DOCTYPE svg PUBLIC "-//W3C//DTD SVG 1.1//EN" "http://www.w3.org/Graphics/SVG/1.1/DTD/svg11.dtd">
<svg width="300" height="195" viewBox="0 0 240 158" preserveAspectRatio="xMidYMid meet" xmlns="http://www.w3.org/2000/svg">
	<line x1="44" y1="79" x2="18" y2="94" stroke="black" stroke-width="1.5px"/>
	<line x1="44" y1="49" x2="44" y2="79" stroke="black" stroke-width="1.5px"/>
	<line x1="70" y1="94" x2="44" y2="79" stroke="black" stroke-width="1.5px"/>
	<line x1="70" y1="124" x2="70" y2="94" stroke="black" stroke-width="1.5px"/>
	<line x1="95.9" y1="79" x2="70" y2="94" stroke="black" stroke-width="1.5px"/>
	<line x1="95.9" y1="49" x2="95.9" y2="79" stroke="black" stroke-width="1.5px"/>
	<line x1="121.9" y1="94" x2="95.9" y2="79" stroke="black" stroke-width="1.5px"/>
	<rect x="38.5" y="42.8" width="26.4" height="14" fill="white" opacity="1"/>
	<text x="38.5" y="54" style="fill:black; font-family: Arial; font-size:14px">SeH</text>
	<rect x="64.5" y="117.8" width="22" height="14" fill="white" opacity="1"/>
	<text x="64.5" y="129" style="fill:black; font-family: Arial; font-size:14px">NH</text>
	<rect x="83.7" y="120.8" width="8.8" height="11.2" fill="white" opacity="1"/>
	<text x="83.7" y="132" style="fill:black; font-family: Arial; font-size:10px">2</text>
	<rect x="116.5" y="87.8" width="18" height="10" fill="white"/>
	<text x="117.5" y="99" style="fill:black; font-family: Arial; font-size:14px">Br</text>
	<text x="10" y="15" style="fill:blue; font-family: Arial, Helvetica, sans-serif; font-size: 14px">BJ_1_6</text>
	<rect x="0" y="0" width="239.92304845413264" height="158" fill="none" stroke="blue" stroke-width="1"/>
</svg>
