<?xml version="1.0" encoding="UTF-8" standalone="no"?>
<!DOCTYPE svg PUBLIC "-//W3C//DTD SVG 1.1//EN" "http://www.w3.org/Graphics/SVG/1.1/DTD/svg11.dtd">
<svg width="257.92304845413264" height="198" viewBox="10 0 258 248" preserveAspectRatio="xMidYMid meet" xmlns="http://www.w3.org/2000/svg">
	<line x1="54" y1="99" x2="28" y2="114" stroke="black" stroke-width="1.5px"/>
	<line x1="54" y1="69" x2="54" y2="99" stroke="black" stroke-width="1.5px"/>
	<line x1="80" y1="114" x2="54" y2="99" stroke="black" stroke-width="1.5px"/>
	<line x1="80" y1="144" x2="80" y2="114" stroke="black" stroke-width="1.5px"/>
	<line x1="105.9" y1="99" x2="80" y2="114" stroke="black" stroke-width="1.5px"/>
	<line x1="131.9" y1="114" x2="105.9" y2="99" stroke="black" stroke-width="1.5px"/>
	<line x1="105.9" y1="69" x2="105.9" y2="99" stroke="black" stroke-width="1.5px"/>
	<rect x="48.5" y="62.8" width="26.4" height="14" fill="white" opacity="1"/>
	<text x="48.5" y="74" style="fill:black; font-family: Arial; font-size:14px">SeH</text>
	<rect x="74.5" y="137.8" width="22" height="14" fill="white" opacity="1"/>
	<text x="74.5" y="149" style="fill:black; font-family: Arial; font-size:14px">NH</text>
	<rect x="93.7" y="140.8" width="8.8" height="11.2" fill="white" opacity="1"/>
	<text x="93.7" y="152" style="fill:black; font-family: Arial; font-size:10px">2</text>
	<rect x="100.5" y="62.8" width="18" height="10" fill="white"/>
	<text x="101.5" y="74" style="fill:black; font-family: Arial; font-size:14px">Br</text>
	<text x="10" y="15" style="fill:blue; font-family: Arial, Helvetica, sans-serif; font-size: 14px">BJ_1_6</text>
	<rect x="0" y="0" width="208" height="228" fill="none" stroke="blue" stroke-width="1"/>
</svg>
