<?xml version="1.0" encoding="UTF-8" standalone="no"?>
<!DOCTYPE svg PUBLIC "-//W3C//DTD SVG 1.1//EN" "http://www.w3.org/Graphics/SVG/1.1/DTD/svg11.dtd">
<svg width="327.90381056766586" height="298.9807621135332" viewBox="10 0 328 349" preserveAspectRatio="xMidYMid meet" xmlns="http://www.w3.org/2000/svg">
	<line x1="157.9" y1="219" x2="172.9" y2="193" stroke="black" stroke-width="1.5px"/>
	<path d="M127.9 219 L157.9 222 L157.9 216 Z" fill="black" />
	<clipPath id="wedge1">
	 <path d="M127.9 219 L138.9 247 L146.9 243 Z" />
	</clipPath>
	<path d="M127.9 219 L142.9 245" stroke="black" stroke-width="11.28px" stroke-dasharray="2,3" clip-path="url(#wedge1)" />
	<line x1="102" y1="234" x2="127.9" y2="219" stroke="black" stroke-width="1.5px"/>
	<clipPath id="wedge2">
	 <path d="M102 234 L78 215 L74 223 Z" />
	</clipPath>
	<path d="M102 234 L76 219" stroke="black" stroke-width="11.28px" stroke-dasharray="2,3" clip-path="url(#wedge2)" />
	<line x1="76" y1="189" x2="76" y2="219" stroke="black" stroke-width="1.5px"/>
	<path d="M76 189 L64 161.5 L58 164.5 Z" fill="black" />
	<line x1="102" y1="204" x2="76" y2="189" stroke="black" stroke-width="1.5px"/>
	<line x1="127.9" y1="189" x2="102" y2="204" stroke="black" stroke-width="1.5px"/>
	<line x1="127.9" y1="189" x2="127.9" y2="219" stroke="black" stroke-width="1.5px"/>
	<path d="M127.9 189 L157.8 189.1 L157.8 183.1 Z" fill="black" />
	<line x1="127.9" y1="159" x2="127.9" y2="189" stroke="black" stroke-width="1.5px"/>
	<clipPath id="wedge3">
	 <path d="M127.9 159 L151.9 178 L155.9 170 Z" />
	</clipPath>
	<path d="M127.9 159 L153.9 174" stroke="black" stroke-width="11.28px" stroke-dasharray="2,3" clip-path="url(#wedge3)" />
	<line x1="153.9" y1="144" x2="127.9" y2="159" stroke="black" stroke-width="1.5px"/>
	<clipPath id="wedge4">
	 <path d="M153.9 144 L177.9 163 L181.9 155 Z" />
	</clipPath>
	<path d="M153.9 144 L179.9 159" stroke="black" stroke-width="11.28px" stroke-dasharray="2,3" clip-path="url(#wedge4)" />
	<line x1="153.9" y1="114" x2="153.9" y2="144" stroke="black" stroke-width="1.5px"/>
	<line x1="127.9" y1="99" x2="153.9" y2="114" stroke="black" stroke-width="1.5px"/>
	<line x1="129.9" y1="69" x2="129.9" y2="99" stroke="black" stroke-width="1.5px"/>
	<line x1="125.9" y1="69" x2="125.9" y2="99" stroke="black" stroke-width="1.5px"/>
	<line x1="102" y1="114" x2="127.9" y2="99" stroke="black" stroke-width="1.5px"/>
	<path d="M102 144 L105 114 L99 114 Z" fill="black" />
	<line x1="102" y1="144" x2="127.9" y2="159" stroke="black" stroke-width="1.5px"/>
	<line x1="76" y1="129" x2="102" y2="144" stroke="black" stroke-width="1.5px"/>
	<line x1="76" y1="129" x2="102" y2="234" stroke="black" stroke-width="1.5px"/>
	<path d="M76 129 L60.9 103.5 L54.9 106.5 Z" fill="black" />
	<line x1="76" y1="159" x2="102" y2="144" stroke="black" stroke-width="1.5px"/>
	<line x1="76" y1="159" x2="76" y2="189" stroke="black" stroke-width="1.5px"/>
	<clipPath id="wedge5">
	 <path d="M76 159 L52 140 L48 148 Z" />
	</clipPath>
	<path d="M76 159 L50 144" stroke="black" stroke-width="11.28px" stroke-dasharray="2,3" clip-path="url(#wedge5)" />
	<rect x="167.4" y="186.8" width="17.6" height="14" fill="white" opacity="1"/>
	<text x="167.4" y="198" style="fill:black; font-family: Arial; font-size:14px">OH</text>
	<rect x="137.4" y="238.8" width="17.6" height="14" fill="white" opacity="1"/>
	<text x="137.4" y="250" style="fill:black; font-family: Arial; font-size:14px">OH</text>
	<rect x="70.6" y="212.8" width="11" height="14" fill="white"/>
	<text x="71.6" y="224" style="fill:black; font-family: Arial; font-size:14px">O</text>
	<rect x="55.6" y="156.8" width="11" height="14" fill="white"/>
	<text x="56.6" y="168" style="fill:black; font-family: Arial; font-size:14px">O</text>
	<circle cx="54.5" cy="151.8" r="4.4" fill="none" stroke="black" stroke-width="1"/>
	<line x1="50.1" y1="151.8" x2="58.9" y2="151.8" stroke="black" stroke-width="1"/>
	<rect x="96.6" y="197.8" width="11" height="14" fill="white"/>
	<text x="97.6" y="209" style="fill:black; font-family: Arial; font-size:14px">O</text>
	<rect x="174.4" y="152.8" width="17.6" height="14" fill="white" opacity="1"/>
	<text x="174.4" y="164" style="fill:black; font-family: Arial; font-size:14px">OH</text>
	<rect x="148.4" y="107.8" width="17.6" height="14" fill="white" opacity="1"/>
	<text x="148.4" y="119" style="fill:black; font-family: Arial; font-size:14px">NH</text>
	<rect x="122.4" y="62.8" width="22" height="14" fill="white" opacity="1"/>
	<text x="122.4" y="74" style="fill:black; font-family: Arial; font-size:14px">NH</text>
	<rect x="141.7" y="65.8" width="8.8" height="11.2" fill="white" opacity="1"/>
	<text x="141.7" y="77" style="fill:black; font-family: Arial; font-size:10px">2</text>
	<circle cx="152.7" cy="64.6" r="4.4" fill="none" stroke="black" stroke-width="1"/>
	<line x1="148.3" y1="64.6" x2="157.1" y2="64.6" stroke="black" stroke-width="1"/>
	<line x1="152.7" y1="60.2" x2="152.7" y2="69" stroke="black" stroke-width="1"/>
	<rect x="88.8" y="107.8" width="22" height="14" fill="white" opacity="1"/>
	<text x="88.8" y="119" style="fill:black; font-family: Arial; font-size:14px">HN</text>
	<rect x="44.7" y="98.8" width="22" height="14" fill="white" opacity="1"/>
	<text x="44.7" y="110" style="fill:black; font-family: Arial; font-size:14px">HO</text>
	<rect x="36.8" y="137.8" width="22" height="14" fill="white" opacity="1"/>
	<text x="36.8" y="149" style="fill:black; font-family: Arial; font-size:14px">HO</text>
	<rect x="148.5" y="167.8" width="11" height="14" fill="white"/>
	<text x="149.5" y="179" style="fill:black; font-family: Arial; font-size:14px">H</text>
	<rect x="152.4" y="179.9" width="11" height="14" fill="white"/>
	<text x="153.4" y="191.1" style="fill:black; font-family: Arial; font-size:14px">H</text>
	<text x="10" y="15" style="fill:blue; font-family: Arial, Helvetica, sans-serif; font-size: 14px">BJ_13_10</text>
	<rect x="0" y="0" width="278" height="328.9807621135332" fill="none" stroke="blue" stroke-width="1"/>
</svg>
